<svg version="1.1" xmlns="http://www.w3.org/2000/svg" viewBox="0 0 176.1833371004825 208.44656166584002" width="176.1833371004825" height="208.44656166584002">
  <!-- svg-source:excalidraw -->
  
  <defs>
    <style class="style-fonts">
      @font-face {
        font-family: "Virgil";
        src: url("https://excalidraw.com/Virgil.woff2");
      }
      @font-face {
        font-family: "Cascadia";
        src: url("https://excalidraw.com/Cascadia.woff2");
      }
    </style>
    
  </defs>
  <g stroke-linecap="round" transform="translate(10 43.72973477287417) rotate(0 78.09166855024125 77.35841344648293)"><path d="M82.33 -0.17 C92.4 -1.09, 103.47 3.52, 112.89 7.87 C122.3 12.22, 132.39 17.98, 138.81 25.93 C145.24 33.88, 148.72 45.5, 151.41 55.59 C154.1 65.69, 155.92 75.98, 154.96 86.51 C153.99 97.04, 151.1 109.63, 145.62 118.77 C140.14 127.91, 131.08 135.39, 122.08 141.36 C113.09 147.33, 101.98 152.76, 91.65 154.56 C81.33 156.36, 70.51 154.71, 60.14 152.16 C49.77 149.61, 37.62 145.65, 29.44 139.27 C21.25 132.88, 16 123.1, 11.04 113.85 C6.08 104.6, 0.98 94.15, -0.32 83.77 C-1.62 73.38, -0.3 61.68, 3.23 51.54 C6.76 41.4, 13.11 30.28, 20.87 22.95 C28.63 15.62, 32.61 8.98, 49.78 7.55 C66.94 6.12, 107.39 7.21, 123.85 14.39 C140.32 21.57, 149.1 49.16, 148.56 50.64 M126.75 16.73 C134.86 22.47, 139.18 31.64, 143.95 41.01 C148.71 50.38, 153.91 62.36, 155.33 72.95 C156.75 83.53, 156.3 95.13, 152.47 104.5 C148.65 113.87, 140.19 122.14, 132.38 129.18 C124.58 136.22, 115.35 142.31, 105.65 146.76 C95.95 151.21, 84.34 155.95, 74.17 155.86 C64 155.77, 54.03 151.09, 44.64 146.23 C35.24 141.37, 24.94 134.62, 17.8 126.69 C10.66 118.77, 4.49 108.89, 1.79 98.67 C-0.91 88.45, 0.42 76.04, 1.59 65.37 C2.76 54.71, 3.43 42.91, 8.81 34.67 C14.19 26.43, 25.25 21.9, 33.88 15.91 C42.5 9.92, 50.05 0.7, 60.56 -1.25 C71.08 -3.19, 86.29 1.34, 96.94 4.23 C107.6 7.12, 119.47 14.21, 124.51 16.09 C129.55 17.97, 127.59 14.58, 127.19 15.53" stroke="none" stroke-width="0" fill="#a5d8ff"></path><path d="M126.39 16.82 C134.4 22.01, 141.57 32.34, 146.25 41.82 C150.93 51.29, 153.43 62.82, 154.47 73.65 C155.51 84.48, 155.7 96.87, 152.49 106.8 C149.28 116.72, 143.06 126.22, 135.22 133.21 C127.37 140.19, 115.35 145.02, 105.44 148.73 C95.53 152.43, 86.28 155.61, 75.75 155.42 C65.22 155.24, 51.86 152.6, 42.26 147.61 C32.65 142.62, 24.64 134.02, 18.11 125.48 C11.57 116.93, 5.87 106.67, 3.06 96.35 C0.25 86.04, -0.11 73.79, 1.24 63.61 C2.59 53.43, 5.33 43.77, 11.17 35.27 C17 26.77, 26.84 18.03, 36.24 12.59 C45.64 7.16, 57.09 4.22, 67.58 2.65 C78.07 1.07, 87.49 -0.71, 99.2 3.13 C110.91 6.96, 130.48 19.44, 137.84 25.66 C145.2 31.88, 144.49 39.08, 143.34 40.44 M28.13 17.97 C35.92 11.33, 48.78 7.4, 59.06 4.74 C69.34 2.09, 79.93 0.81, 89.8 2.07 C99.66 3.32, 108.92 6.42, 118.26 12.27 C127.59 18.12, 139.44 28.52, 145.79 37.15 C152.15 45.78, 154.75 54.53, 156.38 64.06 C158 73.59, 158.77 84.36, 155.53 94.33 C152.3 104.3, 143.76 114.94, 136.96 123.88 C130.16 132.82, 123.7 142.98, 114.72 147.97 C105.75 152.96, 93.21 153.65, 83.11 153.8 C73 153.95, 64.16 152.01, 54.09 148.87 C44.02 145.74, 31 142.15, 22.69 134.99 C14.37 127.83, 8.04 115.98, 4.21 105.9 C0.38 95.82, -1.2 84.52, -0.28 74.52 C0.64 64.51, 4.64 54.97, 9.73 45.86 C14.83 36.75, 27.29 24.78, 30.28 19.88 C33.28 14.98, 26.77 15.36, 27.73 16.46" stroke="#1971c2" stroke-width="1" fill="none"></path></g><g transform="translate(23.704713290447216 71.59342871568305) rotate(0 63.533150507422306 54.396597013478726)"><text x="63.53315050742226" y="0" font-family="Virgil, HanziPen SC, Cangnanshoujiti, KaiTi, Segoe UI Emoji" font-size="87.03455522156601px" fill="#1971c2" text-anchor="middle" style="white-space: pre;" direction="ltr" dominant-baseline="text-before-edge">AT</text></g><g transform="translate(82.59225527205513 64.26087767810179) rotate(0 32.99647966911607 -27.130438839050896)" stroke="none"><path fill="#1971c2" d="M -2.36,0.94 Q -2.36,0.94 -2.81,-0.09 -3.25,-1.12 -4.22,-3.15 -5.18,-5.18 -5.68,-7.72 -6.18,-10.26 -6.25,-11.52 -6.33,-12.78 -6.36,-13.95 -6.40,-15.12 -6.42,-16.25 -6.45,-17.39 -6.44,-18.71 -6.43,-20.04 -6.41,-21.44 -6.39,-22.85 -6.36,-24.29 -6.34,-25.73 -6.33,-28.28 -6.32,-30.83 -5.83,-32.49 -5.34,-34.16 -4.96,-35.33 -4.57,-36.51 -3.91,-37.83 -3.24,-39.16 -2.53,-40.34 -1.82,-41.53 -1.12,-42.78 -0.41,-44.02 0.65,-45.39 1.72,-46.75 2.58,-47.74 3.43,-48.74 4.46,-49.80 5.48,-50.86 6.44,-51.66 7.41,-52.46 8.95,-53.39 10.50,-54.32 12.02,-54.85 13.54,-55.39 14.96,-55.77 16.37,-56.16 17.99,-56.35 19.61,-56.54 21.14,-56.60 22.67,-56.67 24.16,-56.69 25.65,-56.71 27.34,-56.68 29.03,-56.65 31.23,-56.51 33.42,-56.38 35.71,-56.05 38.00,-55.73 40.49,-55.13 42.99,-54.52 45.25,-54.04 47.51,-53.56 49.86,-52.67 52.21,-51.78 54.46,-50.75 56.71,-49.73 58.36,-48.91 60.01,-48.09 61.32,-47.05 62.62,-46.01 63.84,-44.42 65.05,-42.82 66.15,-41.36 67.26,-39.89 68.22,-38.37 69.18,-36.84 69.85,-35.80 70.53,-34.76 70.95,-33.45 71.37,-32.13 71.68,-30.52 71.98,-28.91 71.58,-26.44 71.18,-23.97 69.71,-21.11 68.24,-18.26 67.94,-17.94 67.63,-17.62 67.24,-17.41 66.85,-17.21 66.42,-17.14 65.98,-17.07 65.55,-17.14 65.11,-17.21 64.72,-17.42 64.33,-17.63 64.03,-17.95 63.73,-18.27 63.54,-18.67 63.36,-19.07 63.31,-19.51 63.27,-19.95 63.36,-20.38 63.46,-20.81 63.69,-21.19 63.91,-21.56 64.25,-21.85 64.59,-22.13 65.00,-22.30 65.41,-22.46 65.85,-22.48 66.29,-22.50 66.71,-22.38 67.14,-22.27 67.50,-22.02 67.87,-21.77 68.13,-21.42 68.40,-21.06 68.54,-20.65 68.68,-20.23 68.68,-19.79 68.68,-19.35 68.54,-18.93 68.39,-18.51 68.13,-18.16 67.86,-17.81 67.49,-17.56 67.13,-17.31 66.70,-17.20 66.28,-17.08 65.84,-17.11 65.40,-17.13 64.99,-17.30 64.58,-17.46 64.24,-17.75 63.91,-18.03 63.68,-18.41 63.45,-18.79 63.36,-19.22 63.26,-19.65 63.31,-20.09 63.36,-20.53 63.55,-20.93 63.73,-21.33 63.73,-21.33 63.73,-21.33 64.67,-22.84 65.61,-24.35 66.38,-25.67 67.14,-26.99 67.18,-28.30 67.23,-29.62 67.13,-31.23 67.04,-32.85 66.54,-33.90 66.04,-34.95 65.22,-36.36 64.41,-37.77 63.31,-39.24 62.22,-40.72 61.24,-42.07 60.26,-43.43 59.39,-44.37 58.51,-45.30 57.01,-46.16 55.51,-47.01 53.33,-47.94 51.15,-48.87 49.03,-49.61 46.90,-50.35 44.59,-50.72 42.27,-51.10 39.95,-51.51 37.63,-51.93 35.53,-52.02 33.43,-52.12 31.25,-51.97 29.07,-51.82 27.41,-51.77 25.75,-51.71 24.33,-51.68 22.90,-51.64 21.54,-51.57 20.17,-51.50 18.94,-51.38 17.71,-51.25 15.45,-50.65 13.19,-50.05 11.20,-48.67 9.21,-47.29 8.27,-46.29 7.34,-45.30 6.56,-44.44 5.77,-43.58 4.98,-42.55 4.19,-41.53 3.48,-40.15 2.76,-38.76 2.14,-37.72 1.51,-36.68 1.00,-35.75 0.49,-34.81 -0.25,-32.78 -1.00,-30.74 -0.99,-28.24 -0.98,-25.73 -0.95,-24.29 -0.93,-22.86 -0.90,-21.46 -0.88,-20.06 -0.86,-18.75 -0.85,-17.44 -0.85,-16.34 -0.85,-15.24 -0.84,-14.14 -0.83,-13.05 -0.69,-10.90 -0.55,-8.75 -0.19,-7.03 0.17,-5.30 0.86,-4.19 1.56,-3.08 1.96,-2.01 2.36,-0.94 2.44,-0.65 2.52,-0.35 2.53,-0.04 2.53,0.26 2.46,0.56 2.40,0.86 2.26,1.13 2.12,1.41 1.92,1.64 1.72,1.87 1.47,2.05 1.22,2.23 0.94,2.35 0.65,2.46 0.35,2.50 0.04,2.55 -0.26,2.51 -0.56,2.48 -0.85,2.38 -1.14,2.27 -1.40,2.10 -1.65,1.93 -1.86,1.71 -2.07,1.48 -2.22,1.21 -2.36,0.94 -2.36,0.94 L -2.36,0.94 Z"></path></g><g transform="translate(152.25149012907787 31.99765311274399) rotate(0 -1.099882655637316 4.399530622548781)" stroke="none"><path d="M-0.51 1.18 L-2.49 2.85 L1.2 -0.06 L-5.36 0.77 L-2.74 -6.36 L-3.89 -7.26 L-6.25 -6.87 L-7.09 -4.43 L-4.33 -4.28 L-5.37 -4.88 L-10.45 -5.27 L-12.73 -1.33 L-9.31 1.22 L-6.4 5.08 L-11.41 9.84 L-6.11 12.77 L-5.7 7.51 L-2.82 10.31 L-1.89 15.74 L-2.39 11.34 L5.34 12.66 L2.89 10.91 L7.83 12.39 L4.36 5.09 L8.07 9.71 L7.59 -0.98 L10.38 0.47 L11.31 -1.84 L10.79 -3.86 L8.1 0.32 L9.35 -3.92 L6.24 0.64 L5.82 1.43 L-0.18 1.18" stroke="none" stroke-width="0" fill="#a5d8ff" fill-rule="evenodd"></path><path fill="#1971c2" d="M -2.04,1.63 Q -2.04,1.63 -2.88,0.58 -3.72,-0.46 -4.65,-0.99 -5.58,-1.53 -5.95,0.01 -6.33,1.55 -6.42,2.78 -6.51,4.00 -6.38,5.15 -6.26,6.29 -5.50,7.15 -4.73,8.01 -3.76,8.84 -2.80,9.66 -1.18,9.95 0.42,10.23 1.56,8.94 2.69,7.65 3.04,6.03 3.40,4.40 3.75,2.94 4.11,1.47 4.28,0.20 4.45,-1.06 2.76,0.68 1.07,2.43 0.65,2.54 0.23,2.65 -0.19,2.62 -0.61,2.58 -1.01,2.42 -1.41,2.25 -1.73,1.97 -2.06,1.68 -2.27,1.31 -2.49,0.94 -2.57,0.51 -2.66,0.09 -2.60,-0.33 -2.55,-0.75 -2.36,-1.14 -2.17,-1.53 -1.87,-1.84 -1.57,-2.14 -1.18,-2.34 -0.80,-2.53 -0.37,-2.60 0.04,-2.66 0.47,-2.58 0.89,-2.50 1.27,-2.29 1.65,-2.08 1.94,-1.77 2.23,-1.45 2.40,-1.05 2.57,-0.66 2.61,-0.23 2.65,0.19 2.55,0.61 2.45,1.03 2.22,1.39 1.99,1.76 1.66,2.03 1.33,2.30 0.92,2.45 0.52,2.61 0.09,2.62 -0.33,2.64 -0.74,2.51 -1.16,2.39 -1.51,2.14 -1.86,1.89 -2.12,1.55 -2.37,1.20 -2.50,0.79 -2.63,0.38 -2.62,-0.04 -2.61,-0.47 -2.47,-0.88 -2.32,-1.29 -2.06,-1.62 -1.79,-1.96 -1.43,-2.20 -1.07,-2.43 -1.07,-2.43 -1.07,-2.43 2.49,-3.79 6.07,-5.14 7.58,-4.40 9.09,-3.65 9.53,-1.62 9.98,0.40 9.81,1.53 9.64,2.67 9.39,4.02 9.14,5.36 8.84,7.05 8.53,8.75 7.71,10.34 6.88,11.93 6.06,12.69 5.23,13.45 4.30,14.17 3.36,14.89 1.97,15.42 0.58,15.95 -0.92,15.88 -2.43,15.81 -4.39,14.93 -6.35,14.04 -7.61,13.05 -8.86,12.07 -9.73,11.05 -10.60,10.03 -11.23,8.57 -11.87,7.10 -12.10,5.41 -12.34,3.72 -12.29,2.23 -12.24,0.75 -11.98,-0.85 -11.72,-2.46 -11.12,-3.64 -10.52,-4.81 -9.57,-5.69 -8.61,-6.57 -6.55,-6.76 -4.48,-6.95 -3.00,-6.21 -1.53,-5.48 -0.59,-4.61 0.34,-3.74 1.19,-2.69 2.04,-1.63 2.21,-1.36 2.37,-1.09 2.47,-0.79 2.57,-0.49 2.59,-0.18 2.61,0.13 2.56,0.44 2.50,0.75 2.38,1.04 2.25,1.33 2.06,1.58 1.87,1.83 1.62,2.03 1.37,2.22 1.09,2.36 0.80,2.49 0.49,2.55 0.18,2.61 -0.13,2.59 -0.44,2.58 -0.74,2.49 -1.05,2.40 -1.32,2.23 -1.59,2.07 -1.82,1.85 -2.04,1.63 -2.04,1.63 L -2.04,1.63 Z"></path></g></svg>